<svg width="155" height="32" viewBox="0 0 155 32" fill="none" xmlns="http://www.w3.org/2000/svg">
<path d="M10.6666 18.6667C10.6666 18.6667 12.6666 21.3333 16 21.3333C19.3333 21.3333 21.3333 18.6667 21.3333 18.6667M22.6666 12.32C22.14 12.9667 21.42 13.3333 20.6666 13.3333C19.9133 13.3333 19.2133 12.9667 18.6666 12.32M13.3333 12.32C12.8066 12.9667 12.0866 13.3333 11.3333 13.3333C10.58 13.3333 9.87996 12.9667 9.33329 12.32M29.3333 16C29.3333 23.3638 23.3638 29.3333 16 29.3333C8.63616 29.3333 2.66663 23.3638 2.66663 16C2.66663 8.6362 8.63616 2.66667 16 2.66667C23.3638 2.66667 29.3333 8.6362 29.3333 16Z" stroke="#D72600" stroke-width="3" stroke-linecap="round" stroke-linejoin="round"/>
<path d="M39.464 25V7.3H43.136V25H39.464ZM54.3174 25V19.588C54.3174 19.284 54.3174 19.008 54.3174 18.76C54.3174 18.512 54.3174 18.288 54.3174 18.088C54.3174 17.56 54.2494 17.08 54.1134 16.648C53.9774 16.208 53.7334 15.856 53.3814 15.592C53.0294 15.328 52.5214 15.196 51.8574 15.196C51.2814 15.196 50.7814 15.328 50.3574 15.592C49.9414 15.856 49.6214 16.224 49.3974 16.696C49.1734 17.168 49.0614 17.712 49.0614 18.328L48.0294 17.584C48.0294 16.48 48.2694 15.512 48.7494 14.68C49.2294 13.848 49.8774 13.196 50.6934 12.724C51.5174 12.252 52.4294 12.016 53.4294 12.016C54.4774 12.016 55.3374 12.228 56.0094 12.652C56.6894 13.068 57.1934 13.652 57.5214 14.404C57.8574 15.148 58.0254 16.02 58.0254 17.02C58.0254 17.428 58.0254 17.884 58.0254 18.388C58.0254 18.892 58.0254 19.408 58.0254 19.936V25H54.3174ZM45.3414 25V12.256H49.0614V25H45.3414ZM65.3941 25.288C64.6341 25.288 63.9021 25.2 63.1981 25.024C62.4941 24.848 61.8621 24.588 61.3021 24.244C60.7501 23.9 60.3101 23.472 59.9821 22.96C59.6621 22.44 59.5021 21.836 59.5021 21.148C59.5021 21.116 59.5021 21.08 59.5021 21.04C59.5021 20.992 59.5021 20.956 59.5021 20.932H63.1981C63.1981 20.956 63.1981 20.984 63.1981 21.016C63.1981 21.04 63.1981 21.068 63.1981 21.1C63.1981 21.564 63.4021 21.904 63.8101 22.12C64.2261 22.336 64.7861 22.444 65.4901 22.444C65.8581 22.444 66.2101 22.408 66.5461 22.336C66.8901 22.256 67.1701 22.132 67.3861 21.964C67.6101 21.788 67.7221 21.568 67.7221 21.304C67.7221 20.88 67.4861 20.58 67.0141 20.404C66.5501 20.228 65.8021 20.052 64.7701 19.876C64.1861 19.78 63.5941 19.644 62.9941 19.468C62.3941 19.292 61.8421 19.06 61.3381 18.772C60.8341 18.476 60.4301 18.104 60.1261 17.656C59.8221 17.2 59.6701 16.648 59.6701 16C59.6701 15.136 59.9301 14.408 60.4501 13.816C60.9781 13.224 61.6781 12.776 62.5501 12.472C63.4221 12.168 64.3821 12.016 65.4301 12.016C66.4301 12.016 67.3621 12.184 68.2261 12.52C69.0901 12.848 69.7901 13.324 70.3261 13.948C70.8621 14.564 71.1301 15.308 71.1301 16.18C71.1301 16.196 71.1301 16.22 71.1301 16.252C71.1301 16.284 71.1301 16.316 71.1301 16.348H67.4701C67.4701 16.316 67.4701 16.288 67.4701 16.264C67.4701 16.24 67.4701 16.22 67.4701 16.204C67.4701 15.884 67.3661 15.624 67.1581 15.424C66.9581 15.224 66.7021 15.076 66.3901 14.98C66.0781 14.876 65.7541 14.824 65.4181 14.824C65.1141 14.824 64.7981 14.86 64.4701 14.932C64.1501 14.996 63.8781 15.108 63.6541 15.268C63.4301 15.42 63.3181 15.636 63.3181 15.916C63.3181 16.188 63.4381 16.412 63.6781 16.588C63.9181 16.756 64.2541 16.896 64.6861 17.008C65.1181 17.112 65.6181 17.212 66.1861 17.308C66.7221 17.396 67.2861 17.52 67.8781 17.68C68.4781 17.832 69.0381 18.052 69.5581 18.34C70.0861 18.62 70.5101 18.992 70.8301 19.456C71.1581 19.912 71.3221 20.492 71.3221 21.196C71.3221 21.924 71.1541 22.548 70.8181 23.068C70.4821 23.588 70.0261 24.012 69.4501 24.34C68.8821 24.66 68.2461 24.896 67.5421 25.048C66.8461 25.208 66.1301 25.288 65.3941 25.288ZM72.917 30.244V12.256H76.649V30.244H72.917ZM80.585 25.288C79.577 25.288 78.653 25.02 77.813 24.484C76.973 23.94 76.301 23.212 75.797 22.3C75.293 21.38 75.041 20.348 75.041 19.204C75.041 19.172 75.041 19.144 75.041 19.12C75.041 19.088 75.041 19.052 75.041 19.012L76.649 18.976C76.649 19 76.649 19.024 76.649 19.048C76.649 19.072 76.649 19.096 76.649 19.12C76.649 19.712 76.793 20.232 77.081 20.68C77.369 21.12 77.741 21.46 78.197 21.7C78.653 21.94 79.129 22.06 79.625 22.06C80.441 22.06 81.149 21.78 81.749 21.22C82.357 20.652 82.661 19.768 82.661 18.568C82.661 17.368 82.361 16.496 81.761 15.952C81.161 15.4 80.449 15.124 79.625 15.124C79.129 15.124 78.653 15.244 78.197 15.484C77.741 15.716 77.369 16.048 77.081 16.48C76.793 16.912 76.649 17.428 76.649 18.028L75.041 17.932C75.041 16.78 75.293 15.764 75.797 14.884C76.301 13.996 76.973 13.296 77.813 12.784C78.653 12.272 79.577 12.016 80.585 12.016C81.617 12.016 82.581 12.272 83.477 12.784C84.373 13.288 85.097 14.028 85.649 15.004C86.209 15.98 86.489 17.168 86.489 18.568C86.489 20.032 86.217 21.264 85.673 22.264C85.129 23.264 84.409 24.02 83.513 24.532C82.617 25.036 81.641 25.288 80.585 25.288ZM87.9436 25V12.256H91.6276V25H87.9436ZM89.7796 10.18C89.2036 10.18 88.6996 10.028 88.2676 9.724C87.8436 9.42 87.6316 8.992 87.6316 8.44C87.6316 7.88 87.8436 7.448 88.2676 7.144C88.6996 6.84 89.2036 6.688 89.7796 6.688C90.3636 6.688 90.8676 6.84 91.2916 7.144C91.7236 7.448 91.9396 7.88 91.9396 8.44C91.9396 9 91.7236 9.432 91.2916 9.736C90.8676 10.032 90.3636 10.18 89.7796 10.18ZM93.6489 25V12.256H97.3809V16.648L96.6129 16.168C96.7009 15.568 96.8609 15.016 97.0929 14.512C97.3249 14.008 97.6249 13.572 97.9929 13.204C98.3609 12.828 98.7969 12.536 99.3009 12.328C99.8129 12.12 100.397 12.016 101.053 12.016C101.565 12.016 101.965 12.056 102.253 12.136C102.549 12.208 102.733 12.264 102.805 12.304L102.193 15.64C102.121 15.6 101.961 15.536 101.713 15.448C101.465 15.36 101.145 15.316 100.753 15.316C100.113 15.316 99.5769 15.424 99.1449 15.64C98.7129 15.856 98.3649 16.144 98.1009 16.504C97.8449 16.856 97.6609 17.248 97.5489 17.68C97.4369 18.112 97.3809 18.548 97.3809 18.988V25H93.6489ZM105.162 19.744V17.284H113.61L113.25 17.908C113.25 17.844 113.25 17.784 113.25 17.728C113.25 17.664 113.25 17.604 113.25 17.548C113.25 17.092 113.142 16.656 112.926 16.24C112.71 15.816 112.374 15.472 111.918 15.208C111.47 14.936 110.894 14.8 110.19 14.8C109.486 14.8 108.878 14.952 108.366 15.256C107.862 15.552 107.474 15.98 107.202 16.54C106.938 17.1 106.806 17.776 106.806 18.568C106.806 19.384 106.934 20.084 107.19 20.668C107.454 21.244 107.842 21.688 108.354 22C108.874 22.312 109.518 22.468 110.286 22.468C110.782 22.468 111.21 22.424 111.57 22.336C111.93 22.24 112.222 22.12 112.446 21.976C112.678 21.832 112.854 21.672 112.974 21.496C113.094 21.32 113.166 21.148 113.19 20.98H116.862C116.814 21.516 116.63 22.044 116.31 22.564C115.99 23.076 115.546 23.54 114.978 23.956C114.41 24.364 113.718 24.688 112.902 24.928C112.094 25.168 111.17 25.288 110.13 25.288C108.722 25.288 107.494 25.008 106.446 24.448C105.398 23.88 104.586 23.1 104.01 22.108C103.434 21.108 103.146 19.956 103.146 18.652C103.146 17.332 103.438 16.176 104.022 15.184C104.614 14.184 105.434 13.408 106.482 12.856C107.538 12.296 108.758 12.016 110.142 12.016C111.558 12.016 112.782 12.3 113.814 12.868C114.846 13.428 115.642 14.216 116.202 15.232C116.762 16.24 117.042 17.416 117.042 18.76C117.042 18.96 117.038 19.152 117.03 19.336C117.022 19.52 117.01 19.656 116.994 19.744H105.162ZM131.282 7.3H137.582V25H134.054V9.496L134.126 9.544L130.67 25H125.798L122.282 9.508L122.354 9.472V25H118.814V7.3H125.114L128.342 23.236H128.03L131.282 7.3ZM141.362 19.744V17.284H149.81L149.45 17.908C149.45 17.844 149.45 17.784 149.45 17.728C149.45 17.664 149.45 17.604 149.45 17.548C149.45 17.092 149.342 16.656 149.126 16.24C148.91 15.816 148.574 15.472 148.118 15.208C147.67 14.936 147.094 14.8 146.39 14.8C145.686 14.8 145.078 14.952 144.566 15.256C144.062 15.552 143.674 15.98 143.402 16.54C143.138 17.1 143.006 17.776 143.006 18.568C143.006 19.384 143.134 20.084 143.39 20.668C143.654 21.244 144.042 21.688 144.554 22C145.074 22.312 145.718 22.468 146.486 22.468C146.982 22.468 147.41 22.424 147.77 22.336C148.13 22.24 148.422 22.12 148.646 21.976C148.878 21.832 149.054 21.672 149.174 21.496C149.294 21.32 149.366 21.148 149.39 20.98H153.062C153.014 21.516 152.83 22.044 152.51 22.564C152.19 23.076 151.746 23.54 151.178 23.956C150.61 24.364 149.918 24.688 149.102 24.928C148.294 25.168 147.37 25.288 146.33 25.288C144.922 25.288 143.694 25.008 142.646 24.448C141.598 23.88 140.786 23.1 140.21 22.108C139.634 21.108 139.346 19.956 139.346 18.652C139.346 17.332 139.638 16.176 140.222 15.184C140.814 14.184 141.634 13.408 142.682 12.856C143.738 12.296 144.958 12.016 146.342 12.016C147.758 12.016 148.982 12.3 150.014 12.868C151.046 13.428 151.842 14.216 152.402 15.232C152.962 16.24 153.242 17.416 153.242 18.76C153.242 18.96 153.238 19.152 153.23 19.336C153.222 19.52 153.21 19.656 153.194 19.744H141.362Z" fill="#D72600"/>
</svg>
