<svg width="121" height="137" viewBox="0 0 121 137" fill="none" xmlns="http://www.w3.org/2000/svg">
<path d="M41.5 44C41.5 44 46.75 51 55.5 51C64.25 51 69.5 44 69.5 44M73 27.34C71.6175 29.0375 69.7275 30 67.75 30C65.7725 30 63.935 29.0375 62.5 27.34M48.5 27.34C47.1175 29.0375 45.2275 30 43.25 30C41.2725 30 39.435 29.0375 38 27.34M90.5 37C90.5 56.33 74.83 72 55.5 72C36.17 72 20.5 56.33 20.5 37C20.5 17.67 36.17 2 55.5 2C74.83 2 90.5 17.67 90.5 37Z" stroke="#D72600" stroke-width="3" stroke-linecap="round" stroke-linejoin="round"/>
<path d="M1.464 107V89.3H5.136V107H1.464ZM16.3174 107V101.588C16.3174 101.284 16.3174 101.008 16.3174 100.76C16.3174 100.512 16.3174 100.288 16.3174 100.088C16.3174 99.56 16.2494 99.08 16.1134 98.648C15.9774 98.208 15.7334 97.856 15.3814 97.592C15.0294 97.328 14.5214 97.196 13.8574 97.196C13.2814 97.196 12.7814 97.328 12.3574 97.592C11.9414 97.856 11.6214 98.224 11.3974 98.696C11.1734 99.168 11.0614 99.712 11.0614 100.328L10.0294 99.584C10.0294 98.48 10.2694 97.512 10.7494 96.68C11.2294 95.848 11.8774 95.196 12.6934 94.724C13.5174 94.252 14.4294 94.016 15.4294 94.016C16.4774 94.016 17.3374 94.228 18.0094 94.652C18.6894 95.068 19.1934 95.652 19.5214 96.404C19.8574 97.148 20.0254 98.02 20.0254 99.02C20.0254 99.428 20.0254 99.884 20.0254 100.388C20.0254 100.892 20.0254 101.408 20.0254 101.936V107H16.3174ZM7.34137 107V94.256H11.0614V107H7.34137ZM27.3941 107.288C26.6341 107.288 25.9021 107.2 25.1981 107.024C24.4941 106.848 23.8621 106.588 23.3021 106.244C22.7501 105.9 22.3101 105.472 21.9821 104.96C21.6621 104.44 21.5021 103.836 21.5021 103.148C21.5021 103.116 21.5021 103.08 21.5021 103.04C21.5021 102.992 21.5021 102.956 21.5021 102.932H25.1981C25.1981 102.956 25.1981 102.984 25.1981 103.016C25.1981 103.04 25.1981 103.068 25.1981 103.1C25.1981 103.564 25.4021 103.904 25.8101 104.12C26.2261 104.336 26.7861 104.444 27.4901 104.444C27.8581 104.444 28.2101 104.408 28.5461 104.336C28.8901 104.256 29.1701 104.132 29.3861 103.964C29.6101 103.788 29.7221 103.568 29.7221 103.304C29.7221 102.88 29.4861 102.58 29.0141 102.404C28.5501 102.228 27.8021 102.052 26.7701 101.876C26.1861 101.78 25.5941 101.644 24.9941 101.468C24.3941 101.292 23.8421 101.06 23.3381 100.772C22.8341 100.476 22.4301 100.104 22.1261 99.656C21.8221 99.2 21.6701 98.648 21.6701 98C21.6701 97.136 21.9301 96.408 22.4501 95.816C22.9781 95.224 23.6781 94.776 24.5501 94.472C25.4221 94.168 26.3821 94.016 27.4301 94.016C28.4301 94.016 29.3621 94.184 30.2261 94.52C31.0901 94.848 31.7901 95.324 32.3261 95.948C32.8621 96.564 33.1301 97.308 33.1301 98.18C33.1301 98.196 33.1301 98.22 33.1301 98.252C33.1301 98.284 33.1301 98.316 33.1301 98.348H29.4701C29.4701 98.316 29.4701 98.288 29.4701 98.264C29.4701 98.24 29.4701 98.22 29.4701 98.204C29.4701 97.884 29.3661 97.624 29.1581 97.424C28.9581 97.224 28.7021 97.076 28.3901 96.98C28.0781 96.876 27.7541 96.824 27.4181 96.824C27.1141 96.824 26.7981 96.86 26.4701 96.932C26.1501 96.996 25.8781 97.108 25.6541 97.268C25.4301 97.42 25.3181 97.636 25.3181 97.916C25.3181 98.188 25.4381 98.412 25.6781 98.588C25.9181 98.756 26.2541 98.896 26.6861 99.008C27.1181 99.112 27.6181 99.212 28.1861 99.308C28.7221 99.396 29.2861 99.52 29.8781 99.68C30.4781 99.832 31.0381 100.052 31.5581 100.34C32.0861 100.62 32.5101 100.992 32.8301 101.456C33.1581 101.912 33.3221 102.492 33.3221 103.196C33.3221 103.924 33.1541 104.548 32.8181 105.068C32.4821 105.588 32.0261 106.012 31.4501 106.34C30.8821 106.66 30.2461 106.896 29.5421 107.048C28.8461 107.208 28.1301 107.288 27.3941 107.288ZM34.917 112.244V94.256H38.649V112.244H34.917ZM42.585 107.288C41.577 107.288 40.653 107.02 39.813 106.484C38.973 105.94 38.301 105.212 37.797 104.3C37.293 103.38 37.041 102.348 37.041 101.204C37.041 101.172 37.041 101.144 37.041 101.12C37.041 101.088 37.041 101.052 37.041 101.012L38.649 100.976C38.649 101 38.649 101.024 38.649 101.048C38.649 101.072 38.649 101.096 38.649 101.12C38.649 101.712 38.793 102.232 39.081 102.68C39.369 103.12 39.741 103.46 40.197 103.7C40.653 103.94 41.129 104.06 41.625 104.06C42.441 104.06 43.149 103.78 43.749 103.22C44.357 102.652 44.661 101.768 44.661 100.568C44.661 99.368 44.361 98.496 43.761 97.952C43.161 97.4 42.449 97.124 41.625 97.124C41.129 97.124 40.653 97.244 40.197 97.484C39.741 97.716 39.369 98.048 39.081 98.48C38.793 98.912 38.649 99.428 38.649 100.028L37.041 99.932C37.041 98.78 37.293 97.764 37.797 96.884C38.301 95.996 38.973 95.296 39.813 94.784C40.653 94.272 41.577 94.016 42.585 94.016C43.617 94.016 44.581 94.272 45.477 94.784C46.373 95.288 47.097 96.028 47.649 97.004C48.209 97.98 48.489 99.168 48.489 100.568C48.489 102.032 48.217 103.264 47.673 104.264C47.129 105.264 46.409 106.02 45.513 106.532C44.617 107.036 43.641 107.288 42.585 107.288ZM49.9436 107V94.256H53.6276V107H49.9436ZM51.7796 92.18C51.2036 92.18 50.6996 92.028 50.2676 91.724C49.8436 91.42 49.6316 90.992 49.6316 90.44C49.6316 89.88 49.8436 89.448 50.2676 89.144C50.6996 88.84 51.2036 88.688 51.7796 88.688C52.3636 88.688 52.8676 88.84 53.2916 89.144C53.7236 89.448 53.9396 89.88 53.9396 90.44C53.9396 91 53.7236 91.432 53.2916 91.736C52.8676 92.032 52.3636 92.18 51.7796 92.18ZM55.6489 107V94.256H59.3809V98.648L58.6129 98.168C58.7009 97.568 58.8609 97.016 59.0929 96.512C59.3249 96.008 59.6249 95.572 59.9929 95.204C60.3609 94.828 60.7969 94.536 61.3009 94.328C61.8129 94.12 62.3969 94.016 63.0529 94.016C63.5649 94.016 63.9649 94.056 64.2529 94.136C64.5489 94.208 64.7329 94.264 64.8049 94.304L64.1929 97.64C64.1209 97.6 63.9609 97.536 63.7129 97.448C63.4649 97.36 63.1449 97.316 62.7529 97.316C62.1129 97.316 61.5769 97.424 61.1449 97.64C60.7129 97.856 60.3649 98.144 60.1009 98.504C59.8449 98.856 59.6609 99.248 59.5489 99.68C59.4369 100.112 59.3809 100.548 59.3809 100.988V107H55.6489ZM67.1616 101.744V99.284H75.6096L75.2496 99.908C75.2496 99.844 75.2496 99.784 75.2496 99.728C75.2496 99.664 75.2496 99.604 75.2496 99.548C75.2496 99.092 75.1416 98.656 74.9256 98.24C74.7096 97.816 74.3736 97.472 73.9176 97.208C73.4696 96.936 72.8936 96.8 72.1896 96.8C71.4856 96.8 70.8776 96.952 70.3656 97.256C69.8616 97.552 69.4736 97.98 69.2016 98.54C68.9376 99.1 68.8056 99.776 68.8056 100.568C68.8056 101.384 68.9336 102.084 69.1896 102.668C69.4536 103.244 69.8416 103.688 70.3536 104C70.8736 104.312 71.5176 104.468 72.2856 104.468C72.7816 104.468 73.2096 104.424 73.5696 104.336C73.9296 104.24 74.2216 104.12 74.4456 103.976C74.6776 103.832 74.8536 103.672 74.9736 103.496C75.0936 103.32 75.1656 103.148 75.1896 102.98H78.8616C78.8136 103.516 78.6296 104.044 78.3096 104.564C77.9896 105.076 77.5456 105.54 76.9776 105.956C76.4096 106.364 75.7176 106.688 74.9016 106.928C74.0936 107.168 73.1696 107.288 72.1296 107.288C70.7216 107.288 69.4936 107.008 68.4456 106.448C67.3976 105.88 66.5856 105.1 66.0096 104.108C65.4336 103.108 65.1456 101.956 65.1456 100.652C65.1456 99.332 65.4376 98.176 66.0216 97.184C66.6136 96.184 67.4336 95.408 68.4816 94.856C69.5376 94.296 70.7576 94.016 72.1416 94.016C73.5576 94.016 74.7816 94.3 75.8136 94.868C76.8456 95.428 77.6416 96.216 78.2016 97.232C78.7616 98.24 79.0416 99.416 79.0416 100.76C79.0416 100.96 79.0376 101.152 79.0296 101.336C79.0216 101.52 79.0096 101.656 78.9936 101.744H67.1616ZM93.2824 89.3H99.5824V107H96.0544V91.496L96.1264 91.544L92.6704 107H87.7984L84.2824 91.508L84.3544 91.472V107H80.8144V89.3H87.1144L90.3424 105.236H90.0304L93.2824 89.3ZM103.362 101.744V99.284H111.81L111.45 99.908C111.45 99.844 111.45 99.784 111.45 99.728C111.45 99.664 111.45 99.604 111.45 99.548C111.45 99.092 111.342 98.656 111.126 98.24C110.91 97.816 110.574 97.472 110.118 97.208C109.67 96.936 109.094 96.8 108.39 96.8C107.686 96.8 107.078 96.952 106.566 97.256C106.062 97.552 105.674 97.98 105.402 98.54C105.138 99.1 105.006 99.776 105.006 100.568C105.006 101.384 105.134 102.084 105.39 102.668C105.654 103.244 106.042 103.688 106.554 104C107.074 104.312 107.718 104.468 108.486 104.468C108.982 104.468 109.41 104.424 109.77 104.336C110.13 104.24 110.422 104.12 110.646 103.976C110.878 103.832 111.054 103.672 111.174 103.496C111.294 103.32 111.366 103.148 111.39 102.98H115.062C115.014 103.516 114.83 104.044 114.51 104.564C114.19 105.076 113.746 105.54 113.178 105.956C112.61 106.364 111.918 106.688 111.102 106.928C110.294 107.168 109.37 107.288 108.33 107.288C106.922 107.288 105.694 107.008 104.646 106.448C103.598 105.88 102.786 105.1 102.21 104.108C101.634 103.108 101.346 101.956 101.346 100.652C101.346 99.332 101.638 98.176 102.222 97.184C102.814 96.184 103.634 95.408 104.682 94.856C105.738 94.296 106.958 94.016 108.342 94.016C109.758 94.016 110.982 94.3 112.014 94.868C113.046 95.428 113.842 96.216 114.402 97.232C114.962 98.24 115.242 99.416 115.242 100.76C115.242 100.96 115.238 101.152 115.23 101.336C115.222 101.52 115.21 101.656 115.194 101.744H103.362Z" fill="#D72600"/>
</svg>
